<svg width="19" height="13" viewBox="0 0 19 13" fill="none" xmlns="http://www.w3.org/2000/svg">
<path d="M9.63049 12.0815C9.1263 12.0822 8.64627 11.8622 8.31307 11.478L0.837538 2.84835C0.346131 2.2536 0.412117 1.36922 0.986157 0.856463C1.5602 0.343704 2.43232 0.390124 2.95044 0.961013L9.48724 8.50727C9.52341 8.54918 9.57562 8.57321 9.63049 8.57321C9.68536 8.57321 9.73757 8.54918 9.77374 8.50727L16.3105 0.961014C16.6388 0.563785 17.1531 0.378253 17.6545 0.476209C18.1559 0.574166 18.5657 0.940244 18.7254 1.43279C18.885 1.92533 18.7695 2.46706 18.4234 2.84835L10.9502 11.4749C10.6164 11.8601 10.1357 12.081 9.63049 12.0815Z" fill="#05AAE1"/>
</svg>
